# xmcd
#
# Track frame offsets:
#	150
#	23037
#	57876
#	89328
#	109239
#	136398
#	152835
#	196554
#	218228
#	236135
#	267145
#
# Disc length: 3787 seconds
#
# Revision: 0
# Processed by: cddbd v1.5.1PL0 Copyright (c) Steve Scherf et al.
# Submitted via: audiograbber 1.83.01
#
DISCID=920ec90b
DTITLE=Jimi Bott - Live Volume 1 - Cheap Thrills
DYEAR=2005
DGENRE=Blues
TTITLE0=The Eleiminator
TTITLE1=That`s what you do to me
TTITLE2=Peter Gunn
TTITLE3=I`d rather go blind, crippled and crazy
TTITLE4=Frosty
TTITLE5=Cheap Thrills
TTITLE6=Jam up
TTITLE7=The Bumble Boogie and The nutrocker
TTITLE8=Sing sing sing
TTITLE9=Tribute to Gene, Buddy and Louie
TTITLE10=Ah`w Baby
EXTD=
EXTT0=
EXTT1=
EXTT2=
EXTT3=
EXTT4=
EXTT5=
EXTT6=
EXTT7=
EXTT8=
EXTT9=
EXTT10=
PLAYORDER=
